<svg width="167" height="40" viewBox="0 0 167 40" fill="none" xmlns="http://www.w3.org/2000/svg">
<path d="M32.9581 5.85781C29.3116 2.08031 24.4633 0 19.3064 0C14.1494 0 9.30114 2.08031 5.65465 5.85781C2.00816 9.63531 0 14.6578 0 20C0 25.3422 2.00824 30.3646 5.65465 34.1422C9.30106 37.9198 14.1494 40 19.3064 40C24.4633 40 29.3116 37.9197 32.9581 34.1422C36.6046 30.3647 38.6127 25.3422 38.6127 20C38.6127 14.6578 36.6045 9.63539 32.9581 5.85781Z" fill="#33CC95"/>
<path d="M19.8579 8V33.1429" stroke="white" stroke-width="2" stroke-linecap="round" stroke-linejoin="round"/>
<path d="M25.3741 12.5714H17.0999C16.0758 12.5714 15.0937 12.9929 14.3696 13.743C13.6454 14.4931 13.2387 15.5106 13.2387 16.5714C13.2387 17.6323 13.6454 18.6497 14.3696 19.3999C15.0937 20.15 16.0758 20.5714 17.0999 20.5714H22.6161C23.6401 20.5714 24.6223 20.9929 25.3464 21.743C26.0705 22.4932 26.4773 23.5106 26.4773 24.5714C26.4773 25.6323 26.0705 26.6497 25.3464 27.3999C24.6223 28.15 23.6401 28.5714 22.6161 28.5714H13.2387" stroke="white" stroke-width="2" stroke-linecap="round" stroke-linejoin="round"/>
<path d="M69.872 12.272L65.024 29H62.576L58.688 15.536L54.656 29L52.232 29.024L47.552 12.272H49.88L53.528 26.456L57.56 12.272H60.008L63.848 26.408L67.52 12.272H69.872ZM77.8445 22.376C77.8445 21.032 78.1165 19.856 78.6605 18.848C79.2045 17.824 79.9485 17.032 80.8925 16.472C81.8525 15.912 82.9165 15.632 84.0845 15.632C85.2365 15.632 86.2365 15.88 87.0845 16.376C87.9325 16.872 88.5645 17.496 88.9805 18.248V15.848H91.1885V29H88.9805V26.552C88.5485 27.32 87.9005 27.96 87.0365 28.472C86.1885 28.968 85.1965 29.216 84.0605 29.216C82.8925 29.216 81.8365 28.928 80.8925 28.352C79.9485 27.776 79.2045 26.968 78.6605 25.928C78.1165 24.888 77.8445 23.704 77.8445 22.376ZM88.9805 22.4C88.9805 21.408 88.7805 20.544 88.3805 19.808C87.9805 19.072 87.4365 18.512 86.7485 18.128C86.0765 17.728 85.3325 17.528 84.5165 17.528C83.7005 17.528 82.9565 17.72 82.2845 18.104C81.6125 18.488 81.0765 19.048 80.6765 19.784C80.2765 20.52 80.0765 21.384 80.0765 22.376C80.0765 23.384 80.2765 24.264 80.6765 25.016C81.0765 25.752 81.6125 26.32 82.2845 26.72C82.9565 27.104 83.7005 27.296 84.5165 27.296C85.3325 27.296 86.0765 27.104 86.7485 26.72C87.4365 26.32 87.9805 25.752 88.3805 25.016C88.7805 24.264 88.9805 23.392 88.9805 22.4ZM103.462 11.24V29H101.278V11.24H103.462ZM115.766 11.24V29H113.582V11.24H115.766ZM137.887 21.92C137.887 22.336 137.863 22.776 137.815 23.24H127.303C127.383 24.536 127.823 25.552 128.623 26.288C129.439 27.008 130.423 27.368 131.575 27.368C132.519 27.368 133.303 27.152 133.927 26.72C134.567 26.272 135.015 25.68 135.271 24.944H137.623C137.271 26.208 136.567 27.24 135.511 28.04C134.455 28.824 133.143 29.216 131.575 29.216C130.327 29.216 129.207 28.936 128.215 28.376C127.239 27.816 126.471 27.024 125.911 26C125.351 24.96 125.071 23.76 125.071 22.4C125.071 21.04 125.343 19.848 125.887 18.824C126.431 17.8 127.191 17.016 128.167 16.472C129.159 15.912 130.295 15.632 131.575 15.632C132.823 15.632 133.927 15.904 134.887 16.448C135.847 16.992 136.583 17.744 137.095 18.704C137.623 19.648 137.887 20.72 137.887 21.92ZM135.631 21.464C135.631 20.632 135.447 19.92 135.079 19.328C134.711 18.72 134.207 18.264 133.567 17.96C132.943 17.64 132.247 17.48 131.479 17.48C130.375 17.48 129.431 17.832 128.647 18.536C127.879 19.24 127.439 20.216 127.327 21.464H135.631ZM149.832 17.648V25.4C149.832 26.04 149.968 26.496 150.24 26.768C150.512 27.024 150.984 27.152 151.656 27.152H153.264V29H151.296C150.08 29 149.168 28.72 148.56 28.16C147.952 27.6 147.648 26.68 147.648 25.4V17.648H145.944V15.848H147.648V12.536H149.832V15.848H153.264V17.648H149.832Z" fill="white"/>
</svg>
